<?xml version="1.0" encoding="UTF-8" standalone="no"?>
<svg width="420px" height="84px" viewBox="0 0 420 84" version="1.1" xmlns="http://www.w3.org/2000/svg" xmlns:xlink="http://www.w3.org/1999/xlink" xmlns:sketch="http://www.bohemiancoding.com/sketch/ns">
    <!-- Generator: Sketch 3.3.2 (12043) - http://www.bohemiancoding.com/sketch -->
    <title>logo FINAL</title>
    <desc>Created with Sketch.</desc>
    <defs></defs>
    <g id="Page-1" stroke="none" stroke-width="1" fill="none" fill-rule="evenodd" sketch:type="MSPage">
        <g id="logo-FINAL" sketch:type="MSLayerGroup">
            <path d="M188.502,28.249 C189.829,27.001 191.363,26.198 193.065,25.641 C194.86,25.052 196.764,24.702 198.573,24.702 L218.36,24.702 L218.36,2.702 L199.479,2.702 C199.003,2.702 187.748,2.765 182.676,4.529 C177.411,6.36 172.876,8.795 169.212,12.21 C165.44,15.723 162.44,20.029 160.325,25.008 C158.231,29.939 157.132,35.556 157.107,42.702 C157.132,49.848 158.231,55.465 160.325,60.396 C162.44,65.375 165.44,69.681 169.212,73.194 C172.876,76.609 177.411,79.044 182.676,80.875 C187.748,82.639 199.003,82.702 199.479,82.702 L218.36,82.702 L218.36,60.702 L198.573,60.702 C196.764,60.702 194.86,60.352 193.065,59.763 C191.363,59.206 189.829,58.403 188.502,57.155 C187.161,55.892 186.045,54.226 185.184,52.096 C184.292,49.892 183.84,47.102 183.84,43.748 C183.84,43.733 183.841,43.718 183.841,42.702 C183.841,41.686 183.84,41.671 183.84,41.656 C183.84,38.302 184.292,35.512 185.184,33.308 C186.045,31.178 187.161,29.512 188.502,28.249" id="Fill-17" fill="#30AFD3" sketch:type="MSShapeGroup"></path>
            <path d="M51.827,40.72 C49.747,38.668 47.149,36.87 44.105,35.377 C41.38,34.04 38.127,32.664 34.397,31.274 C32.773,30.709 31.275,30.154 29.941,29.622 C28.827,29.18 27.844,28.688 27.018,28.16 C26.341,27.726 26.012,27.363 25.863,27.149 C25.863,27.148 25.805,27.023 25.805,26.658 C25.805,26.27 25.866,26.089 25.887,26.057 C25.888,26.056 25.913,26.025 26.03,25.951 C26.158,25.87 27.399,25.153 31.407,25.153 C33.314,25.153 39.908,25.161 47.36,25.166 L47.36,2.709 C38.137,2.697 32.343,2.686 30.429,2.686 C26.139,2.686 22.191,3.236 18.693,4.321 C15.065,5.447 11.902,7.107 9.295,9.255 C6.609,11.465 4.504,14.186 3.036,17.343 C1.578,20.484 0.838,24.015 0.838,27.839 C0.838,31.721 1.567,35.132 3.004,37.978 C4.379,40.708 6.195,43.071 8.402,45.002 C10.495,46.836 12.881,48.372 15.49,49.568 C17.814,50.635 20.194,51.603 22.597,52.455 C28.362,54.391 30.97,55.786 32.142,56.615 C33.285,57.423 33.285,57.972 33.285,58.334 C33.285,58.78 33.22,59.182 33.138,59.422 C33.137,59.423 33.087,59.491 32.919,59.614 C32.762,59.73 32.271,60.032 31.112,60.33 C30.412,60.51 29.109,60.725 26.871,60.725 C22.847,60.725 2.368,60.642 2.368,60.642 L0.36,60.633 L0.36,83.017 L2.345,83.031 C2.56,83.033 23.838,83.192 26.918,83.192 C35.604,83.192 45.253,82.584 50.95,78.073 C55.865,74.182 58.358,67.574 58.358,58.432 C58.358,54.613 57.832,51.25 56.795,48.436 C55.712,45.503 54.041,42.908 51.827,40.72" id="Fill-18" fill="#30AFD3" sketch:type="MSShapeGroup"></path>
            <path d="M141.771,82.702 L118.36,44.432 L118.36,82.702 L93.36,82.702 L93.36,2.702 L122.021,2.702 L144.36,38.353 L144.36,2.702 L169.36,2.702 L169.36,82.702 L141.771,82.702" id="Fill-19" fill="#30AFD3" sketch:type="MSShapeGroup"></path>
            <path d="M316.054,82.702 L293.36,44.595 L293.36,82.702 L267.36,82.702 L267.36,2.702 L296.304,2.702 L319.36,38.514 L319.36,2.702 L344.36,2.702 L344.36,82.702 L316.054,82.702" id="Fill-20" fill="#30AFD3" sketch:type="MSShapeGroup"></path>
            <path d="M376.398,24.373 C373.773,24.373 371.397,24.811 369.336,25.675 C367.311,26.526 365.555,27.722 364.121,29.23 C362.68,30.746 361.551,32.593 360.768,34.719 C359.95,36.932 359.536,39.392 359.536,42.031 C359.536,44.733 359.947,47.203 360.759,49.372 C361.547,51.481 362.677,53.318 364.119,54.833 C365.553,56.341 367.309,57.537 369.338,58.388 C371.388,59.252 373.763,59.689 376.398,59.689 C379.033,59.689 381.406,59.252 383.452,58.391 C385.483,57.539 387.239,56.343 388.676,54.834 C390.118,53.317 391.25,51.479 392.039,49.372 C392.85,47.199 393.261,44.729 393.261,42.031 C393.261,39.397 392.847,36.936 392.029,34.718 C391.244,32.593 390.114,30.745 388.673,29.228 C387.24,27.721 385.484,26.525 383.455,25.672 C381.398,24.811 379.023,24.373 376.398,24.373 L376.398,24.373 Z M376.398,84 C370.328,84 364.627,83.025 359.452,81.102 C354.199,79.153 349.579,76.304 345.722,72.634 C341.849,68.953 338.797,64.448 336.648,59.244 C334.518,54.089 333.437,48.297 333.437,42.031 C333.437,35.767 334.518,29.976 336.648,24.819 C338.794,19.623 341.846,15.118 345.721,11.429 C349.581,7.761 354.2,4.913 359.453,2.962 C364.622,1.04 370.323,0.065 376.398,0.065 C382.472,0.065 388.173,1.04 393.344,2.963 C398.596,4.914 403.214,7.761 407.071,11.426 C410.947,15.114 414.001,19.619 416.149,24.819 C418.279,29.978 419.36,35.769 419.36,42.031 C419.36,48.295 418.279,54.086 416.149,59.245 C414,64.449 410.945,68.954 407.072,72.636 C403.218,76.303 398.598,79.152 393.342,81.103 C388.171,83.025 382.469,84 376.398,84 L376.398,84 Z" id="Fill-21" fill="#30AFD3" sketch:type="MSShapeGroup"></path>
            <path d="M63.36,82.702 L63.36,48.671 L32.133,2.702 L63.635,2.702 L75.752,24.109 L88.596,2.702 L119.087,2.702 L88.36,48.663 L88.36,82.702 L63.36,82.702" id="Fill-22" fill="#000106" sketch:type="MSShapeGroup"></path>
            <path d="M261.208,82.702 L255.147,67.702 L242.36,67.702 L248.36,50.478 L244.604,40.153 L235.106,66.114 L228.735,82.702 L200.616,82.702 L235.355,2.702 L254.734,2.702 L289.7,82.702 L261.208,82.702" id="Fill-23" fill="#30AFD3" sketch:type="MSShapeGroup"></path>
            <path d="M283.031,67.445 L283.016,67.409 L267.36,31.358 L267.36,18.253 L283.031,67.445" id="Fill-24" fill="#369BBA" sketch:type="MSShapeGroup"></path>
            <path d="M283.031,67.445 L283.016,67.409 L283.031,67.445" id="Fill-25" fill="#369BBA" sketch:type="MSShapeGroup"></path>
            <path d="M202.875,77.499 L207.054,60.702 L210.169,60.702 L202.876,77.496 L202.875,77.499" id="Fill-26" fill="#369BBA" sketch:type="MSShapeGroup"></path>
            <path d="M202.876,77.496 L210.169,60.702 L210.235,60.702 L202.876,77.496" id="Fill-27" fill="#369BBA" sketch:type="MSShapeGroup"></path>
            <path d="M93.36,51.369 L93.36,41.253 L96.785,36.061 L118.001,4.326 L93.36,51.369" id="Fill-28" fill="#369BBA" sketch:type="MSShapeGroup"></path>
            <path d="M118.851,2.702 L118.79,2.702 L119.087,2.253 L118.851,2.702" id="Fill-29" fill="#DADBD6" sketch:type="MSShapeGroup"></path>
            <path d="M96.785,36.061 L118.79,2.702 L118.851,2.702 L118.001,4.326 L96.785,36.061" id="Fill-30" fill="#000106" sketch:type="MSShapeGroup"></path>
        </g>
    </g>
</svg>