<?xml version="1.0" encoding="UTF-8" standalone="no"?>
<svg width="170px" height="153px" viewBox="0 0 170 153" version="1.1" xmlns="http://www.w3.org/2000/svg" xmlns:xlink="http://www.w3.org/1999/xlink" xmlns:sketch="http://www.bohemiancoding.com/sketch/ns">
    <!-- Generator: Sketch 3.4.3 (16618) - http://www.bohemiancoding.com/sketch -->
    <title>DB Socket Icon</title>
    <desc>Created with Sketch.</desc>
    <defs></defs>
    <g id="Page-1" stroke="none" stroke-width="1" fill="none" fill-rule="evenodd" sketch:type="MSPage">
        <g id="Sockets---light-background-1" sketch:type="MSArtboardGroup" transform="translate(-1011.000000, -386.000000)">
            <g id="DB-Socket-Icon" sketch:type="MSLayerGroup" transform="translate(1011.000000, 386.000000)">
                <path d="M123.015388,1.13686838e-13 C126.232744,1.13686838e-13 129.026763,1.78416464 130.466107,4.50289171 L168.05837,71.6214663 C169.074377,72.9808298 169.582381,74.6800342 169.582381,76.4641989 C169.582381,78.2483635 169.074377,79.9475679 168.05837,81.3069315 L130.466107,148.425506 C129.026763,151.144233 126.232744,152.928398 123.015388,152.928398 L46.8148541,152.928398 C43.5974982,152.928398 40.8034787,151.144233 39.3641352,148.425506 L1.7718719,81.3069315 C0.755864781,79.9475679 0.247861222,78.2483635 0.247861222,76.4641989 C0.247861222,74.6800342 0.755864781,72.9808298 1.7718719,71.6214663 L39.3641352,4.50289171 C40.8034787,1.78416464 43.5974982,1.42108547e-13 46.8148541,1.42108547e-13 L123.015388,1.13686838e-13 L123.015388,1.13686838e-13 Z M101.660277,78 C100.64007,78 99.4791454,78 98.2478612,78.1792027 C102.328689,81.1898087 105.178232,85.1681095 105.178232,90.5441916 L105.178232,99.5043285 L126.28596,99.5043285 L126.28596,90.5441916 C126.28596,82.1933441 109.857112,78 101.660277,78 L101.660277,78 Z M70.873544,78 C62.6767096,78 46.2478612,82.1933441 46.2478612,90.5441916 L46.2478612,99.5043285 L95.4992268,99.5043285 L95.4992268,90.5441916 C95.4992268,82.1933441 79.0703785,78 70.873544,78 L70.873544,78 Z M71.8017253,69.5043285 C77.6304635,69.5043285 82.3555893,64.6904206 82.3555893,58.7521642 C82.3555893,52.8139079 77.6304635,48 71.8017253,48 C65.9729871,48 61.2478612,52.8139079 61.2478612,58.7521642 C61.2478612,64.6904206 65.9729871,69.5043285 71.8017253,69.5043285 L71.8017253,69.5043285 Z M101.801725,69.5043285 C107.630463,69.5043285 112.355589,64.6904206 112.355589,58.7521642 C112.355589,52.8139079 107.630463,48 101.801725,48 C95.9729871,48 91.2478612,52.8139079 91.2478612,58.7521642 C91.2478612,64.6904206 95.9729871,69.5043285 101.801725,69.5043285 L101.801725,69.5043285 Z" id="Shape" fill="#9575CD" sketch:type="MSShapeGroup"></path>
                <g id="account-multiple-(1)" transform="translate(95.000000, 73.000000)"></g>
            </g>
        </g>
    </g>
</svg>