<?xml version="1.0" encoding="utf-8"?>
<!-- Generator: Adobe Illustrator 16.0.0, SVG Export Plug-In . SVG Version: 6.00 Build 0)  -->
<!DOCTYPE svg PUBLIC "-//W3C//DTD SVG 1.1//EN" "http://www.w3.org/Graphics/SVG/1.1/DTD/svg11.dtd">
<svg version="1.1" id="Layer_1" xmlns="http://www.w3.org/2000/svg" xmlns:xlink="http://www.w3.org/1999/xlink" x="0px" y="0px"
	 width="178px" height="178px" viewBox="0 0 178 178" enable-background="new 0 0 178 178" xml:space="preserve">
<path fill="#020202" d="M176.398,83.934l-39.516-70.223C135.368,10.867,132.434,9,129.05,9H48.949c-3.381,0-6.318,1.867-7.832,4.711
	L1.602,83.934C0.533,85.355,0,87.134,0,89s0.533,3.646,1.602,5.066l39.516,70.223c1.514,2.845,4.45,4.711,7.832,4.711h80.101
	c3.383,0,6.318-1.866,7.833-4.711L176.4,94.066c1.066-1.42,1.6-3.2,1.6-5.066S177.467,85.355,176.398,83.934z M122.5,106.4
	c0,3.699-3,6.699-6.7,6.699H68.9l-13.4,13.4V66.2c0-3.701,3-6.7,6.7-6.7h53.6c3.7,0,6.7,3,6.7,6.7V106.4z M62.2,66.2h53.6v40.2H68.9
	l-6.7,6.699V66.2z"/>
</svg>
