<?xml version="1.0" encoding="utf-8"?>
<!-- Generator: Adobe Illustrator 16.0.0, SVG Export Plug-In . SVG Version: 6.00 Build 0)  -->
<!DOCTYPE svg PUBLIC "-//W3C//DTD SVG 1.1//EN" "http://www.w3.org/Graphics/SVG/1.1/DTD/svg11.dtd">
<svg version="1.1" id="Layer_1" xmlns="http://www.w3.org/2000/svg" xmlns:xlink="http://www.w3.org/1999/xlink" x="0px" y="0px"
	 width="178px" height="178px" viewBox="0 0 178 178" enable-background="new 0 0 178 178" xml:space="preserve">
<path fill="#020202" d="M176.399,83.934l-39.516-70.223C135.369,10.867,132.434,9,129.05,9H48.949c-3.381,0-6.318,1.867-7.832,4.711
	L1.602,83.934C0.533,85.354,0,87.134,0,89s0.533,3.646,1.602,5.066l39.516,70.223c1.514,2.845,4.451,4.711,7.832,4.711h80.101
	c3.383,0,6.318-1.866,7.833-4.711l39.517-70.223c1.066-1.42,1.6-3.2,1.6-5.066S177.467,85.354,176.399,83.934z M89,128.91
	c-22.451,0-40.6-17.96-40.6-39.91c0-22.042,18.177-39.911,40.6-39.911c10.769,0,21.095,4.205,28.709,11.689
	C125.323,68.264,129.6,78.415,129.6,89C129.6,111.041,111.422,128.91,89,128.91z M89.255,56.875
	c-17.938,0-32.479,14.295-32.479,31.929c0,17.633,14.542,31.928,32.479,31.928c17.938,0,32.479-14.295,32.479-31.928
	C121.735,71.17,107.194,56.875,89.255,56.875z M106.723,105.85L85.409,93.277V69.332h6.09v20.953l18.27,10.656L106.723,105.85z"/>
</svg>
