<?xml version="1.0" encoding="UTF-8" standalone="no"?>
<svg width="178px" height="162px" viewBox="0 0 178 162" version="1.1" xmlns="http://www.w3.org/2000/svg" xmlns:xlink="http://www.w3.org/1999/xlink" xmlns:sketch="http://www.bohemiancoding.com/sketch/ns">
    <!-- Generator: Sketch 3.4.3 (16618) - http://www.bohemiancoding.com/sketch -->
    <title>CodeBox Socket Icon</title>
    <desc>Created with Sketch.</desc>
    <defs></defs>
    <g id="Page-1" stroke="none" stroke-width="1" fill="none" fill-rule="evenodd" sketch:type="MSPage">
        <g id="Sockets---light-background-1" sketch:type="MSArtboardGroup" transform="translate(-258.000000, -378.000000)" fill="#E57373">
            <g id="CodeBox-Socket-Icon" sketch:type="MSLayerGroup" transform="translate(258.000000, 379.000000)">
                <path d="M128.985714,-0.128617363 C132.362286,-0.128617363 135.294571,1.74105038 136.805143,4.59006788 L176.257714,74.9251876 C177.324,76.3496963 177.857143,78.1303323 177.857143,80 C177.857143,81.8696677 177.324,83.6503037 176.257714,85.0748124 L136.805143,155.409932 C135.294571,158.25895 132.362286,160.128617 128.985714,160.128617 L49.0142857,160.128617 C45.6377143,160.128617 42.7054286,158.25895 41.1948571,155.409932 L1.74228571,85.0748124 C0.676,83.6503037 0.142857143,81.8696677 0.142857143,80 C0.142857143,78.1303323 0.676,76.3496963 1.74228571,74.9251876 L41.1948571,4.59006788 C42.7054286,1.74105038 45.6377143,-0.128617363 49.0142857,-0.128617363 L128.985714,-0.128617363 Z M101.877814,102.023914 L125.215576,80.0674446 L101.877814,58.1109752 L108.980611,51.4285714 L139.42117,80.0674446 L108.980611,108.706318 L101.877814,102.023914 Z M75.8906234,102.023914 L52.5528612,80.0674446 L75.8906234,58.1109752 L68.7878262,51.4285714 L38.3472669,80.0674446 L68.7878262,108.706318 L75.8906234,102.023914 Z" id="Shape" sketch:type="MSShapeGroup"></path>
            </g>
        </g>
    </g>
</svg>