<?xml version="1.0" encoding="UTF-8" standalone="no"?>
<svg width="178px" height="162px" viewBox="0 0 178 162" version="1.1" xmlns="http://www.w3.org/2000/svg" xmlns:xlink="http://www.w3.org/1999/xlink" xmlns:sketch="http://www.bohemiancoding.com/sketch/ns">
    <!-- Generator: Sketch 3.4.3 (16618) - http://www.bohemiancoding.com/sketch -->
    <title>Shape</title>
    <desc>Created with Sketch.</desc>
    <defs></defs>
    <g id="Page-1" stroke="none" stroke-width="1" fill="none" fill-rule="evenodd" sketch:type="MSPage">
        <g id="Sockets---light-background-1" sketch:type="MSArtboardGroup" transform="translate(-624.000000, -378.000000)" fill="#D4E157">
            <path d="M753.001992,378.871383 C756.378564,378.871383 759.310849,380.74105 760.821421,383.590068 L800.273992,453.925188 C801.340278,455.349696 801.873421,457.130332 801.873421,459 C801.873421,460.869668 801.340278,462.650304 800.273992,464.074812 L760.821421,534.409932 C759.310849,537.25895 756.378564,539.128617 753.001992,539.128617 L673.030564,539.128617 C669.653992,539.128617 666.721707,537.25895 665.211135,534.409932 L625.758564,464.074812 C624.692278,462.650304 624.159135,460.869668 624.159135,459 C624.159135,457.130332 624.692278,455.349696 625.758564,453.925188 L665.211135,383.590068 C666.721707,380.74105 669.653992,378.871383 673.030564,378.871383 L753.001992,378.871383 L753.001992,378.871383 Z M714.768587,488.835086 C732.706863,488.835086 747.248709,474.540207 747.248709,456.906579 C747.248709,439.272952 732.706863,424.978072 714.768587,424.978072 C696.83031,424.978072 682.288464,439.272952 682.288464,456.906579 C682.288464,474.540207 696.83031,488.835086 714.768587,488.835086 L714.768587,488.835086 Z M714.512951,417.192456 C725.280781,417.192456 735.607589,421.397314 743.221595,428.88201 C750.835601,436.366706 755.113104,446.518131 755.113104,457.103089 C755.113104,479.145124 736.935797,497.013723 714.512951,497.013723 C692.061067,497.013723 673.912798,479.053938 673.912798,457.103089 C673.912798,435.061055 692.090106,417.192456 714.512951,417.192456 L714.512951,417.192456 Z M717.011209,437.435059 L717.011209,458.388142 L735.281277,469.044281 L732.236266,473.953289 L710.921186,461.381439 L710.921186,437.435059 L717.011209,437.435059 L717.011209,437.435059 Z" id="Shape" sketch:type="MSShapeGroup"></path>
        </g>
    </g>
</svg>