<?xml version="1.0" encoding="UTF-8" standalone="no"?>
<svg width="178px" height="160px" viewBox="0 0 178 160" version="1.1" xmlns="http://www.w3.org/2000/svg" xmlns:xlink="http://www.w3.org/1999/xlink" xmlns:sketch="http://www.bohemiancoding.com/sketch/ns">
    <!-- Generator: Sketch 3.4.3 (16618) - http://www.bohemiancoding.com/sketch -->
    <title>Channel Socket</title>
    <desc>Created with Sketch.</desc>
    <defs></defs>
    <g id="Page-1" stroke="none" stroke-width="1" fill="none" fill-rule="evenodd" sketch:type="MSPage">
        <g id="Sockets---light-background-1" sketch:type="MSArtboardGroup" transform="translate(-255.000000, -100.000000)" fill="#64B5F6">
            <g id="Channel-Socket" sketch:type="MSLayerGroup" transform="translate(255.000000, 100.000000)">
                <path d="M112.969174,83.967188 L112.969174,103.897004 C112.969174,106.648738 110.874719,108.879458 108.291079,108.879458 C107.495803,108.879458 106.747308,108.879458 103.893671,106.388231 C100.993252,103.897004 96.0812529,98.9145502 91.028911,96.4233232 C86.3508166,94.1313943 81.5323793,93.9320962 76.7607231,93.9320962 L82.4212173,110.473844 L82.5615601,111.370685 C82.5615601,112.746552 81.514333,113.861912 80.2225129,113.861912 L70.8663241,113.861912 C69.8371433,113.861912 68.9483054,113.164369 68.6676197,112.167878 L62.3989733,93.9320962 L61.5101353,93.9320962 C58.9264951,93.9320962 56.8320409,91.7013755 56.8320409,88.9496421 C51.6647605,88.9496421 47.4758521,84.4882008 47.4758521,78.984734 C47.4758521,73.4812672 51.6647605,69.0198258 56.8320409,69.0198258 C56.8320409,66.2680924 58.9264951,64.0373718 61.5101353,64.0373718 L75.5444185,64.0373718 C80.7371033,64.0373718 85.9297881,64.0373718 91.028911,61.5461447 C96.0812529,59.0549177 100.993252,54.0724636 103.893671,51.5812366 C106.747308,49.0900096 107.495803,49.0900096 108.291079,49.0900096 C110.874719,49.0900096 112.969174,51.3207302 112.969174,54.0724636 L112.969174,74.0022799 C115.552814,74.0022799 117.647268,76.2330006 117.647268,78.984734 C117.647268,81.7364674 115.552814,83.967188 112.969174,83.967188 L112.969174,83.967188 Z M139.919561,78.984734 C139.919561,85.8605206 137.299829,92.0885882 133.089544,96.6226214 L126.44665,89.5475366 C128.97282,86.8570114 130.563373,83.1201708 130.563373,78.984734 C130.563373,74.8492971 128.97282,71.1124565 126.44665,68.4219313 L133.089544,61.3468466 C137.299829,65.8808798 139.919561,72.1089474 139.919561,78.984734 L139.919561,78.984734 Z M41.0376575,155.276736 L1.58508609,85.0658489 C0.518800375,83.6438562 -0.0143424825,81.8663654 -0.0143424825,80 C-0.0143424825,78.1336346 0.518800375,76.3561438 1.58508609,74.9341511 L41.0376575,4.72326353 C42.5482289,1.87927821 45.4805147,0.012912846 48.8570861,0.012912846 L128.828515,0.012912846 C132.205086,0.012912846 135.137372,1.87927821 136.647943,4.72326353 L176.100515,74.9341511 C177.1668,76.3561438 177.699943,78.1336346 177.699943,80 C177.699943,81.8663654 177.1668,83.6438562 176.100515,85.0658489 L136.647943,155.276736 C135.137372,158.120722 132.205086,159.987087 128.828515,159.987087 L48.8570861,159.987087 C45.4805147,159.987087 42.5482289,158.120722 41.0376575,155.276736 Z" id="Shape" sketch:type="MSShapeGroup"></path>
            </g>
        </g>
    </g>
</svg>