<?xml version="1.0" encoding="utf-8"?>
<!-- Generator: Adobe Illustrator 16.0.0, SVG Export Plug-In . SVG Version: 6.00 Build 0)  -->
<!DOCTYPE svg PUBLIC "-//W3C//DTD SVG 1.1//EN" "http://www.w3.org/Graphics/SVG/1.1/DTD/svg11.dtd">
<svg version="1.1" id="Layer_1" xmlns="http://www.w3.org/2000/svg" xmlns:xlink="http://www.w3.org/1999/xlink" x="0px" y="0px"
	 width="178px" height="178px" viewBox="0 0 178 178" enable-background="new 0 0 178 178" xml:space="preserve">
<path fill="#020202" d="M176.398,83.934l-39.516-70.223C135.368,10.867,132.434,9,129.05,9H48.949c-3.381,0-6.318,1.867-7.832,4.711
	L1.602,83.934C0.533,85.355,0,87.134,0,89s0.533,3.646,1.602,5.066l39.517,70.223c1.514,2.845,4.45,4.711,7.832,4.711h80.101
	c3.383,0,6.318-1.866,7.833-4.711L176.4,94.066c1.066-1.42,1.6-3.2,1.6-5.066S177.467,85.355,176.398,83.934z M104.534,63.248
	c5.829,0,10.554,4.814,10.554,10.752c0,5.938-4.725,10.752-10.554,10.752S93.98,79.938,93.98,74
	C93.98,68.062,98.705,63.248,104.534,63.248z M74.534,63.248c5.829,0,10.554,4.814,10.554,10.752
	c0,5.938-4.725,10.752-10.554,10.752c-5.828,0-10.554-4.814-10.554-10.752C63.98,68.062,68.706,63.248,74.534,63.248z
	 M98.231,114.752H48.98v-8.96c0-8.351,16.429-12.544,24.626-12.544c8.196,0,24.625,4.193,24.625,12.544V114.752z M129.019,114.752
	H107.91v-8.96c0-5.376-2.85-9.354-6.93-12.364c1.23-0.18,2.393-0.18,3.412-0.18c8.197,0,24.626,4.193,24.626,12.544V114.752z"/>
</svg>
