<?xml version="1.0" encoding="utf-8"?>
<!-- Generator: Adobe Illustrator 16.0.0, SVG Export Plug-In . SVG Version: 6.00 Build 0)  -->
<!DOCTYPE svg PUBLIC "-//W3C//DTD SVG 1.1//EN" "http://www.w3.org/Graphics/SVG/1.1/DTD/svg11.dtd">
<svg version="1.1" id="Layer_1" xmlns="http://www.w3.org/2000/svg" xmlns:xlink="http://www.w3.org/1999/xlink" x="0px" y="0px"
	 width="178px" height="178px" viewBox="0 -9 178 178" enable-background="new 0 -9 178 178" xml:space="preserve">
<path fill="#010101" d="M61.464,51.993h6.428v6.351h-6.428V51.993z M178,80c0,1.866-0.533,3.646-1.602,5.066l-39.517,70.223
	c-1.515,2.845-4.45,4.711-7.833,4.711h-80.1c-3.382,0-6.319-1.866-7.832-4.711L1.602,85.066C0.533,83.646,0,81.866,0,80
	s0.533-3.645,1.602-5.066L41.118,4.711C42.631,1.867,45.568,0,48.95,0h80.1c3.384,0,6.318,1.867,7.833,4.711l39.516,70.223
	C177.467,76.355,178,78.134,178,80z M122.963,102.792c0-3.506-3.801-6.351-8.49-6.351H63.528c-4.689,0-8.491,2.845-8.491,6.351
	v6.351c0,3.508,3.802,6.352,8.491,6.352h50.945c4.689,0,8.49-2.844,8.49-6.352V102.792z M122.963,77.393
	c0-3.507-3.801-6.35-8.49-6.35H63.528c-4.689,0-8.491,2.843-8.491,6.35v6.35c0,3.507,3.802,6.351,8.491,6.351h50.945
	c4.689,0,8.49-2.844,8.49-6.351V77.393z M122.963,51.993c0-3.506-3.801-6.35-8.49-6.35H63.527c-4.689,0-8.491,2.844-8.491,6.35
	v6.351c0,3.507,3.802,6.351,8.491,6.351h50.946c4.688,0,8.489-2.844,8.489-6.351L122.963,51.993L122.963,51.993z M61.464,83.743
	h6.428v-6.35h-6.428V83.743z M61.464,109.143h6.428v-6.351h-6.428V109.143z"/>
</svg>
