<?xml version="1.0" encoding="UTF-8" standalone="no"?>
<svg width="42px" height="39px" viewBox="0 0 42 39" version="1.1" xmlns="http://www.w3.org/2000/svg" xmlns:xlink="http://www.w3.org/1999/xlink" xmlns:sketch="http://www.bohemiancoding.com/sketch/ns">
    <!-- Generator: Sketch 3.5.2 (25235) - http://www.bohemiancoding.com/sketch -->
    <title>DB Socket Icon</title>
    <desc>Created with Sketch.</desc>
    <defs></defs>
    <g id="Push-notification-socket" stroke="none" stroke-width="1" fill="none" fill-rule="evenodd" sketch:type="MSPage">
        <g id="PushNotify-Sockets" sketch:type="MSArtboardGroup" transform="translate(-277.000000, -191.000000)">
            <g id="Data-Socket" sketch:type="MSLayerGroup" transform="translate(276.000000, 187.000000)">
                <g id="DB-Socket-Icon" transform="translate(1.000000, 4.000000)" sketch:type="MSShapeGroup">
                    <path d="M32.1417115,1.73132373 L41.2846368,18.4091015 C41.5317428,18.7468793 41.6552959,19.1691015 41.6552959,19.6124348 C41.6552959,20.0557682 41.5317428,20.4779904 41.2846368,20.8157682 L32.1417115,37.493546 C31.7916446,38.1691015 31.1121028,38.6124348 30.3296002,38.6124348 L11.7966436,38.6124348 C11.014141,38.6124348 10.3345993,38.1691015 9.98453232,37.493546 L0.841607079,20.8157682 C0.594500992,20.4779904 0.470947948,20.0557682 0.470947948,19.6124348 C0.470947948,19.1691015 0.594500992,18.7468793 0.841607079,18.4091015 L9.98453232,1.73132373 C10.3345993,1.05576818 11.014141,0.612434845 11.7966436,0.612434845 L30.3296002,0.612434845 C31.1121028,0.612434845 31.7916446,1.05576818 32.1417115,1.73132373 Z" id="Shape" fill="#000000"></path>
                    <path d="M28,26 L14,26 L14,12 L24,12 L24,10 L14,10 C12.89,10 12,10.89 12,12 L12,26 C12,27.1045695 12.8954305,28 14,28 L28,28 C29.1045695,28 30,27.1045695 30,26 L30,18 L28,18 L28,26 Z M16.91,17.08 L15.5,18.5 L20,23 L30,13 L28.59,11.58 L20,20.17 L16.91,17.08 L16.91,17.08 Z" id="Shape" fill="#FFFFFF"></path>
                </g>
            </g>
        </g>
    </g>
</svg>