<?xml version="1.0" encoding="utf-8"?>
<!-- Generator: Adobe Illustrator 16.0.0, SVG Export Plug-In . SVG Version: 6.00 Build 0)  -->
<!DOCTYPE svg PUBLIC "-//W3C//DTD SVG 1.1//EN" "http://www.w3.org/Graphics/SVG/1.1/DTD/svg11.dtd">
<svg version="1.1" id="Layer_1" xmlns="http://www.w3.org/2000/svg" xmlns:xlink="http://www.w3.org/1999/xlink" x="0px" y="0px"
	 width="178px" height="178px" viewBox="0 0 178 178" enable-background="new 0 0 178 178" xml:space="preserve">
<path fill="#020202" d="M176.398,83.934L136.883,13.71C135.368,10.867,132.434,9,129.05,9H48.949c-3.381,0-6.318,1.867-7.832,4.711
	L1.603,83.934C0.533,85.354,0,87.133,0,89c0,1.865,0.533,3.646,1.603,5.066l39.516,70.223c1.514,2.844,4.451,4.711,7.832,4.711
	h80.101c3.383,0,6.318-1.867,7.833-4.711L176.4,94.066c1.066-1.42,1.6-3.201,1.6-5.066C178,87.133,177.467,85.354,176.398,83.934z
	 M89,123.711v-17.355H54.591V71.644H89V54.289L123.409,89L89,123.711z"/>
</svg>
