<?xml version="1.0" encoding="UTF-8" standalone="no"?>
<svg width="178px" height="161px" viewBox="0 0 178 161" version="1.1" xmlns="http://www.w3.org/2000/svg" xmlns:xlink="http://www.w3.org/1999/xlink" xmlns:sketch="http://www.bohemiancoding.com/sketch/ns">
    <!-- Generator: Sketch 3.4.3 (16618) - http://www.bohemiancoding.com/sketch -->
    <title>DB Socket Icon</title>
    <desc>Created with Sketch.</desc>
    <defs></defs>
    <g id="Page-1" stroke="none" stroke-width="1" fill="none" fill-rule="evenodd" sketch:type="MSPage">
        <g id="Sockets---light-background-1" sketch:type="MSArtboardGroup" transform="translate(-624.000000, -100.000000)" fill="#81C784">
            <g id="DB-Socket-Icon" sketch:type="MSLayerGroup" transform="translate(624.000000, 101.000000)">
                <path d="M114.855535,45.4444143 L63.910469,45.4444143 C59.2211052,45.4444143 55.4196247,48.2873718 55.4196247,51.7943377 L55.4196247,58.144261 C55.4196247,61.6512269 59.2211052,64.4941844 63.910469,64.4941844 L114.855535,64.4941844 C119.544899,64.4941844 123.34638,61.6512269 123.34638,58.144261 L123.34638,51.7943377 C123.34638,48.2873718 119.544899,45.4444143 114.855535,45.4444143 L114.855535,45.4444143 Z M68.2746922,58.144261 L61.8471585,58.144261 L61.8471585,51.7943377 L68.2746922,51.7943377 L68.2746922,58.144261 L68.2746922,58.144261 Z M114.855535,70.8441078 L63.910469,70.8441078 C59.2211052,70.8441078 55.4196247,73.6870653 55.4196247,77.1940311 L55.4196247,83.5439545 C55.4196247,87.0509204 59.2211052,89.8938779 63.910469,89.8938779 L114.855535,89.8938779 C119.544899,89.8938779 123.34638,87.0509204 123.34638,83.5439545 L123.34638,77.1940311 C123.34638,73.6870653 119.544899,70.8441078 114.855535,70.8441078 L114.855535,70.8441078 Z M68.2746922,83.5439545 L61.8471585,83.5439545 L61.8471585,77.1940311 L68.2746922,77.1940311 L68.2746922,83.5439545 L68.2746922,83.5439545 Z M114.855535,96.2438013 L63.910469,96.2438013 C59.2211052,96.2438013 55.4196247,99.0867588 55.4196247,102.593725 L55.4196247,108.943648 C55.4196247,112.450614 59.2211052,115.293571 63.910469,115.293571 L114.855535,115.293571 C119.544899,115.293571 123.34638,112.450614 123.34638,108.943648 L123.34638,102.593725 C123.34638,99.0867588 119.544899,96.2438013 114.855535,96.2438013 L114.855535,96.2438013 Z M68.2746922,108.943648 L61.8471585,108.943648 L61.8471585,102.593725 L68.2746922,102.593725 L68.2746922,108.943648 L68.2746922,108.943648 Z M136.351017,4.52437704 L175.558541,74.7352647 C176.618204,76.1572573 177.148036,77.9347481 177.148036,79.8011135 C177.148036,81.6674789 176.618204,83.4449697 175.558541,84.8669624 L136.351017,155.07785 C134.849828,157.921835 131.935755,159.788201 128.580156,159.788201 L49.1054446,159.788201 C45.7498456,159.788201 42.8357729,157.921835 41.3345839,155.07785 L2.12705947,84.8669624 C1.06739665,83.4449697 0.537565237,81.6674789 0.537565237,79.8011135 C0.537565237,77.9347481 1.06739665,76.1572573 2.12705947,74.7352647 L41.3345839,4.52437704 C42.8357729,1.68039172 45.7498456,-0.185973647 49.1054446,-0.185973647 L128.580156,-0.185973647 C131.935755,-0.185973647 134.849828,1.68039172 136.351017,4.52437704 Z" id="Shape" sketch:type="MSShapeGroup"></path>
            </g>
        </g>
    </g>
</svg>