<?xml version="1.0" encoding="utf-8"?>
<!-- Generator: Adobe Illustrator 16.0.0, SVG Export Plug-In . SVG Version: 6.00 Build 0)  -->
<!DOCTYPE svg PUBLIC "-//W3C//DTD SVG 1.1//EN" "http://www.w3.org/Graphics/SVG/1.1/DTD/svg11.dtd">
<svg version="1.1" id="Layer_1" xmlns="http://www.w3.org/2000/svg" xmlns:xlink="http://www.w3.org/1999/xlink" x="0px" y="0px"
	 width="178px" height="178px" viewBox="0 -9 178 178" enable-background="new 0 -9 178 178" xml:space="preserve">
<path fill="#010101" d="M176.398,74.933L136.883,4.711C135.368,1.867,132.434,0,129.05,0h-80.1c-3.382,0-6.319,1.867-7.832,4.711
	L1.602,74.933C0.533,76.355,0,78.134,0,80s0.533,3.646,1.602,5.066l39.516,70.223c1.513,2.845,4.45,4.711,7.832,4.711h80.1
	c3.384,0,6.318-1.866,7.833-4.711l39.516-70.223c1.068-1.42,1.602-3.2,1.602-5.066S177.467,76.355,176.398,74.933z M113.126,83.967
	v19.93c0,2.752-2.094,4.982-4.678,4.982c-0.796,0-1.544,0-4.397-2.49c-2.9-2.492-7.812-7.475-12.863-9.965
	c-4.68-2.293-9.498-2.492-14.27-2.492l5.661,16.543l0.14,0.896c0,1.375-1.047,2.49-2.339,2.49h-9.356
	c-1.029,0-1.918-0.697-2.199-1.693l-6.269-18.236h-0.889c-2.584,0-4.678-2.229-4.678-4.981c-5.167,0-9.356-4.461-9.356-9.964
	c0-5.503,4.188-9.965,9.356-9.965c0-2.752,2.094-4.982,4.678-4.982h14.034c5.193,0,10.385,0,15.484-2.492
	c5.053-2.491,9.965-7.474,12.864-9.965c2.854-2.491,3.603-2.491,4.397-2.491c2.584,0,4.678,2.231,4.678,4.982v19.93
	c2.584,0,4.68,2.23,4.68,4.982C117.805,81.736,115.71,83.967,113.126,83.967z M133.247,96.623l-6.644-7.076
	c2.525-2.689,4.117-6.427,4.117-10.562c0-4.136-1.592-7.873-4.117-10.563l6.644-7.075c4.21,4.534,6.83,10.762,6.83,17.638
	C140.077,85.859,137.457,92.088,133.247,96.623z"/>
</svg>
